<svg xmlns="http://www.w3.org/2000/svg" width="16" height="16" viewBox="0 0 16 16" fill="none">
  <path fill-rule="evenodd" clip-rule="evenodd" d="M8 15C11.866 15 15 11.866 15 8C15 4.13401 11.866 1 8 1C4.13401 1 1 4.13401 1 8C1 11.866 4.13401 15 8 15ZM8 16C12.4183 16 16 12.4183 16 8C16 3.58172 12.4183 0 8 0C3.58172 0 0 3.58172 0 8C0 12.4183 3.58172 16 8 16ZM7.35355 4.64645C7.54882 4.84171 7.54882 5.15829 7.35355 5.35355L4.70711 8L7.35355 10.6464C7.54882 10.8417 7.54882 11.1583 7.35355 11.3536C7.15829 11.5488 6.84171 11.5488 6.64645 11.3536L3.64645 8.35355C3.45118 8.15829 3.45118 7.84171 3.64645 7.64645L6.64645 4.64645C6.84171 4.45118 7.15829 4.45118 7.35355 4.64645ZM11.3536 5.35355C11.5488 5.15829 11.5488 4.84171 11.3536 4.64645C11.1583 4.45118 10.8417 4.45118 10.6464 4.64645L7.64645 7.64645C7.45118 7.84171 7.45118 8.15829 7.64645 8.35355L10.6464 11.3536C10.8417 11.5488 11.1583 11.5488 11.3536 11.3536C11.5488 11.1583 11.5488 10.8417 11.3536 10.6464L8.70711 8L11.3536 5.35355Z" fill="#778192"/>
</svg>